<?xml version="1.0" encoding="UTF-8" standalone="no"?>
<!DOCTYPE svg PUBLIC "-//W3C//DTD SVG 1.1//EN" "http://www.w3.org/Graphics/SVG/1.1/DTD/svg11.dtd">
<svg width="100%" height="100%" viewBox="0 0 800 600" version="1.1" xmlns="http://www.w3.org/2000/svg" xmlns:xlink="http://www.w3.org/1999/xlink" xml:space="preserve" xmlns:serif="http://www.serif.com/" style="fill-rule:evenodd;clip-rule:evenodd;stroke-linecap:round;stroke-linejoin:round;stroke-miterlimit:1.5;">
    <rect x="209.043" y="169.05" width="115.073" height="190.631" style="fill:white;stroke:black;stroke-width:2px;"/>
    <g transform="matrix(1.9512,0,0,0.627246,-276.089,328.281)">
        <rect x="209.043" y="169.05" width="115.073" height="190.631" style="fill:rgb(253,255,177);stroke:black;stroke-width:1.38px;"/>
    </g>
    <g transform="matrix(1.30565,0,0,1.2648,-227.35,-21.8138)">
        <path d="M717.707,51.096C689.375,40.628 643.321,57.757 636.725,75.214C630.128,92.672 682.278,98.332 682.046,111.087C681.814,123.843 647.568,134.766 649.612,149.286C651.656,163.807 677.605,199.83 719.173,198.023C760.741,196.217 734.551,162.197 744.769,146.217C754.987,130.237 762.409,86.179 756.685,75.952C751.175,66.107 736.567,58.064 717.707,51.096Z" style="fill:rgb(253,255,177);stroke:black;stroke-width:1.56px;"/>
    </g>
    <g transform="matrix(1.9512,0,0,0.627246,170.058,284.904)">
        <rect x="209.043" y="169.05" width="115.073" height="190.631" style="fill:rgb(255,202,177);stroke:black;stroke-width:1.38px;"/>
    </g>
    <g transform="matrix(1.31633,0,0,1.0289,124.829,-43.276)">
        <rect x="209.043" y="169.05" width="115.073" height="190.631" style="fill:white;stroke:black;stroke-width:1.69px;"/>
    </g>
    <g transform="matrix(1.16984,0,0,1.2349,-5.53515,-45.4242)">
        <path d="M32.633,80.906C30.918,110.773 81.247,113.775 90.716,133.75C100.185,153.724 61.052,158.655 63.748,175.473C66.444,192.29 100.391,192.678 117.563,193.365C134.736,194.053 136.355,149.236 148.44,141.503C160.526,133.77 188.296,91.292 149.251,67.516C110.206,43.741 87.208,67.073 79.039,68.178C71.213,69.237 34.349,51.04 32.633,80.906Z" style="fill:rgb(177,217,255);stroke:black;stroke-width:1.66px;"/>
    </g>
    <g transform="matrix(12,0,0,12,78.6713,212.397)">
        <path d="M0.114,-0L0.114,-0.7L0.416,-0.7C0.494,-0.7 0.555,-0.684 0.598,-0.653C0.641,-0.622 0.662,-0.577 0.662,-0.52C0.662,-0.482 0.653,-0.45 0.636,-0.424C0.618,-0.398 0.594,-0.378 0.564,-0.365C0.533,-0.352 0.5,-0.345 0.464,-0.345L0.481,-0.369C0.526,-0.369 0.564,-0.362 0.597,-0.349C0.629,-0.335 0.654,-0.315 0.672,-0.288C0.69,-0.261 0.699,-0.227 0.699,-0.187C0.699,-0.128 0.677,-0.082 0.634,-0.049C0.59,-0.016 0.524,-0 0.436,-0L0.114,-0ZM0.188,-0.061L0.435,-0.061C0.496,-0.061 0.543,-0.071 0.576,-0.093C0.609,-0.114 0.625,-0.147 0.625,-0.193C0.625,-0.238 0.609,-0.272 0.576,-0.293C0.543,-0.314 0.496,-0.324 0.435,-0.324L0.18,-0.324L0.18,-0.385L0.411,-0.385C0.467,-0.385 0.51,-0.396 0.542,-0.417C0.572,-0.438 0.588,-0.47 0.588,-0.512C0.588,-0.555 0.572,-0.587 0.542,-0.608C0.51,-0.628 0.467,-0.639 0.411,-0.639L0.188,-0.639L0.188,-0.061Z" style="fill-rule:nonzero;"/>
    </g>
    <g transform="matrix(12,0,0,12,87.7193,212.397)">
        <rect x="0.099" y="-0.742" width="0.071" height="0.742" style="fill-rule:nonzero;"/>
    </g>
    <g transform="matrix(12,0,0,12,90.9473,212.397)">
        <path d="M0.316,0.005C0.271,0.005 0.232,-0.003 0.199,-0.02C0.166,-0.037 0.14,-0.062 0.122,-0.095C0.103,-0.128 0.094,-0.17 0.094,-0.22L0.094,-0.525L0.165,-0.525L0.165,-0.228C0.165,-0.172 0.179,-0.13 0.207,-0.102C0.234,-0.073 0.273,-0.059 0.323,-0.059C0.36,-0.059 0.392,-0.067 0.419,-0.082C0.446,-0.097 0.466,-0.118 0.481,-0.147C0.495,-0.176 0.502,-0.21 0.502,-0.25L0.502,-0.525L0.573,-0.525L0.573,-0L0.505,-0L0.505,-0.144L0.516,-0.118C0.499,-0.079 0.474,-0.049 0.439,-0.028C0.404,-0.006 0.363,0.005 0.316,0.005Z" style="fill-rule:nonzero;"/>
    </g>
    <g transform="matrix(12,0,0,12,99.0113,212.397)">
        <path d="M0.322,0.005C0.267,0.005 0.219,-0.007 0.178,-0.03C0.137,-0.053 0.104,-0.084 0.081,-0.125C0.058,-0.165 0.046,-0.211 0.046,-0.263C0.046,-0.315 0.057,-0.361 0.08,-0.401C0.102,-0.441 0.133,-0.472 0.172,-0.496C0.211,-0.519 0.254,-0.53 0.303,-0.53C0.352,-0.53 0.396,-0.519 0.435,-0.497C0.473,-0.474 0.503,-0.443 0.525,-0.403C0.547,-0.362 0.558,-0.316 0.558,-0.263L0.557,-0.241L0.1,-0.241L0.1,-0.294L0.519,-0.294L0.491,-0.273C0.491,-0.311 0.483,-0.345 0.467,-0.375C0.45,-0.404 0.428,-0.427 0.4,-0.444C0.372,-0.461 0.34,-0.469 0.303,-0.469C0.267,-0.469 0.235,-0.461 0.206,-0.444C0.177,-0.427 0.155,-0.404 0.139,-0.374C0.123,-0.344 0.115,-0.31 0.115,-0.271L0.115,-0.26C0.115,-0.22 0.124,-0.185 0.142,-0.155C0.159,-0.124 0.184,-0.1 0.216,-0.084C0.247,-0.067 0.283,-0.058 0.324,-0.058C0.356,-0.058 0.386,-0.064 0.414,-0.075C0.441,-0.086 0.465,-0.104 0.485,-0.127L0.525,-0.081C0.502,-0.053 0.472,-0.032 0.438,-0.017C0.403,-0.002 0.364,0.005 0.322,0.005Z" style="fill-rule:nonzero;"/>
    </g>
    <g transform="matrix(12,0,0,12,109.403,212.397)">
        <path d="M0.25,-0L0.25,-0.636L0.004,-0.636L0.004,-0.7L0.57,-0.7L0.57,-0.636L0.324,-0.636L0.324,-0L0.25,-0Z" style="fill-rule:nonzero;"/>
    </g>
    <g transform="matrix(12,0,0,12,115.943,212.397)">
        <path d="M0.428,-0L0.428,-0.116L0.425,-0.135L0.425,-0.329C0.425,-0.374 0.413,-0.408 0.388,-0.432C0.363,-0.456 0.325,-0.468 0.276,-0.468C0.242,-0.468 0.21,-0.462 0.179,-0.451C0.148,-0.44 0.122,-0.425 0.101,-0.406L0.069,-0.459C0.096,-0.482 0.128,-0.499 0.165,-0.512C0.202,-0.524 0.242,-0.53 0.283,-0.53C0.351,-0.53 0.404,-0.513 0.441,-0.48C0.478,-0.446 0.496,-0.395 0.496,-0.326L0.496,-0L0.428,-0ZM0.247,0.005C0.208,0.005 0.173,-0.002 0.145,-0.015C0.116,-0.028 0.093,-0.046 0.078,-0.069C0.063,-0.092 0.055,-0.118 0.055,-0.148C0.055,-0.175 0.062,-0.2 0.075,-0.223C0.088,-0.245 0.109,-0.263 0.139,-0.277C0.168,-0.29 0.208,-0.297 0.258,-0.297L0.439,-0.297L0.439,-0.244L0.26,-0.244C0.209,-0.244 0.174,-0.235 0.155,-0.217C0.135,-0.199 0.125,-0.177 0.125,-0.15C0.125,-0.12 0.137,-0.096 0.16,-0.078C0.183,-0.06 0.216,-0.051 0.258,-0.051C0.298,-0.051 0.333,-0.06 0.362,-0.079C0.391,-0.097 0.412,-0.123 0.425,-0.158L0.441,-0.109C0.428,-0.074 0.405,-0.047 0.372,-0.026C0.339,-0.005 0.297,0.005 0.247,0.005Z" style="fill-rule:nonzero;"/>
    </g>
    <g transform="matrix(12,0,0,12,123.023,212.397)">
        <path d="M0.37,0.005C0.324,0.005 0.283,-0.006 0.246,-0.027C0.209,-0.048 0.18,-0.078 0.159,-0.118C0.138,-0.158 0.127,-0.206 0.127,-0.263C0.127,-0.32 0.138,-0.369 0.16,-0.409C0.181,-0.448 0.21,-0.478 0.247,-0.499C0.284,-0.52 0.325,-0.53 0.37,-0.53C0.42,-0.53 0.465,-0.519 0.505,-0.497C0.544,-0.474 0.575,-0.443 0.598,-0.403C0.621,-0.363 0.632,-0.316 0.632,-0.263C0.632,-0.21 0.621,-0.164 0.598,-0.124C0.575,-0.083 0.544,-0.052 0.505,-0.029C0.465,-0.006 0.42,0.005 0.37,0.005ZM0.099,-0L0.099,-0.742L0.17,-0.742L0.17,-0.37L0.16,-0.264L0.167,-0.158L0.167,-0L0.099,-0ZM0.365,-0.058C0.402,-0.058 0.436,-0.067 0.465,-0.084C0.494,-0.1 0.518,-0.125 0.535,-0.156C0.552,-0.187 0.561,-0.222 0.561,-0.263C0.561,-0.304 0.552,-0.34 0.535,-0.371C0.518,-0.402 0.494,-0.426 0.465,-0.443C0.436,-0.46 0.402,-0.468 0.365,-0.468C0.328,-0.468 0.294,-0.46 0.265,-0.443C0.235,-0.426 0.212,-0.402 0.195,-0.371C0.178,-0.34 0.169,-0.304 0.169,-0.263C0.169,-0.222 0.178,-0.187 0.195,-0.156C0.212,-0.125 0.235,-0.1 0.265,-0.084C0.294,-0.067 0.328,-0.058 0.365,-0.058Z" style="fill-rule:nonzero;"/>
    </g>
    <g transform="matrix(12,0,0,12,131.159,212.397)">
        <rect x="0.099" y="-0.742" width="0.071" height="0.742" style="fill-rule:nonzero;"/>
    </g>
    <g transform="matrix(12,0,0,12,134.387,212.397)">
        <path d="M0.322,0.005C0.267,0.005 0.219,-0.007 0.178,-0.03C0.137,-0.053 0.104,-0.084 0.081,-0.125C0.058,-0.165 0.046,-0.211 0.046,-0.263C0.046,-0.315 0.057,-0.361 0.08,-0.401C0.102,-0.441 0.133,-0.472 0.172,-0.496C0.211,-0.519 0.254,-0.53 0.303,-0.53C0.352,-0.53 0.396,-0.519 0.435,-0.497C0.473,-0.474 0.503,-0.443 0.525,-0.403C0.547,-0.362 0.558,-0.316 0.558,-0.263L0.557,-0.241L0.1,-0.241L0.1,-0.294L0.519,-0.294L0.491,-0.273C0.491,-0.311 0.483,-0.345 0.467,-0.375C0.45,-0.404 0.428,-0.427 0.4,-0.444C0.372,-0.461 0.34,-0.469 0.303,-0.469C0.267,-0.469 0.235,-0.461 0.206,-0.444C0.177,-0.427 0.155,-0.404 0.139,-0.374C0.123,-0.344 0.115,-0.31 0.115,-0.271L0.115,-0.26C0.115,-0.22 0.124,-0.185 0.142,-0.155C0.159,-0.124 0.184,-0.1 0.216,-0.084C0.247,-0.067 0.283,-0.058 0.324,-0.058C0.356,-0.058 0.386,-0.064 0.414,-0.075C0.441,-0.086 0.465,-0.104 0.485,-0.127L0.525,-0.081C0.502,-0.053 0.472,-0.032 0.438,-0.017C0.403,-0.002 0.364,0.005 0.322,0.005Z" style="fill-rule:nonzero;"/>
    </g>
    <g transform="matrix(12,0,0,12,245.063,152.106)">
        <path d="M0.25,-0L0.25,-0.636L0.004,-0.636L0.004,-0.7L0.57,-0.7L0.57,-0.636L0.324,-0.636L0.324,-0L0.25,-0Z" style="fill-rule:nonzero;"/>
    </g>
    <g transform="matrix(12,0,0,12,251.603,152.106)">
        <path d="M0.428,-0L0.428,-0.116L0.425,-0.135L0.425,-0.329C0.425,-0.374 0.413,-0.408 0.388,-0.432C0.363,-0.456 0.325,-0.468 0.276,-0.468C0.242,-0.468 0.21,-0.462 0.179,-0.451C0.148,-0.44 0.122,-0.425 0.101,-0.406L0.069,-0.459C0.096,-0.482 0.128,-0.499 0.165,-0.512C0.202,-0.524 0.242,-0.53 0.283,-0.53C0.351,-0.53 0.404,-0.513 0.441,-0.48C0.478,-0.446 0.496,-0.395 0.496,-0.326L0.496,-0L0.428,-0ZM0.247,0.005C0.208,0.005 0.173,-0.002 0.145,-0.015C0.116,-0.028 0.093,-0.046 0.078,-0.069C0.063,-0.092 0.055,-0.118 0.055,-0.148C0.055,-0.175 0.062,-0.2 0.075,-0.223C0.088,-0.245 0.109,-0.263 0.139,-0.277C0.168,-0.29 0.208,-0.297 0.258,-0.297L0.439,-0.297L0.439,-0.244L0.26,-0.244C0.209,-0.244 0.174,-0.235 0.155,-0.217C0.135,-0.199 0.125,-0.177 0.125,-0.15C0.125,-0.12 0.137,-0.096 0.16,-0.078C0.183,-0.06 0.216,-0.051 0.258,-0.051C0.298,-0.051 0.333,-0.06 0.362,-0.079C0.391,-0.097 0.412,-0.123 0.425,-0.158L0.441,-0.109C0.428,-0.074 0.405,-0.047 0.372,-0.026C0.339,-0.005 0.297,0.005 0.247,0.005Z" style="fill-rule:nonzero;"/>
    </g>
    <g transform="matrix(12,0,0,12,258.683,152.106)">
        <path d="M0.37,0.005C0.324,0.005 0.283,-0.006 0.246,-0.027C0.209,-0.048 0.18,-0.078 0.159,-0.118C0.138,-0.158 0.127,-0.206 0.127,-0.263C0.127,-0.32 0.138,-0.369 0.16,-0.409C0.181,-0.448 0.21,-0.478 0.247,-0.499C0.284,-0.52 0.325,-0.53 0.37,-0.53C0.42,-0.53 0.465,-0.519 0.505,-0.497C0.544,-0.474 0.575,-0.443 0.598,-0.403C0.621,-0.363 0.632,-0.316 0.632,-0.263C0.632,-0.21 0.621,-0.164 0.598,-0.124C0.575,-0.083 0.544,-0.052 0.505,-0.029C0.465,-0.006 0.42,0.005 0.37,0.005ZM0.099,-0L0.099,-0.742L0.17,-0.742L0.17,-0.37L0.16,-0.264L0.167,-0.158L0.167,-0L0.099,-0ZM0.365,-0.058C0.402,-0.058 0.436,-0.067 0.465,-0.084C0.494,-0.1 0.518,-0.125 0.535,-0.156C0.552,-0.187 0.561,-0.222 0.561,-0.263C0.561,-0.304 0.552,-0.34 0.535,-0.371C0.518,-0.402 0.494,-0.426 0.465,-0.443C0.436,-0.46 0.402,-0.468 0.365,-0.468C0.328,-0.468 0.294,-0.46 0.265,-0.443C0.235,-0.426 0.212,-0.402 0.195,-0.371C0.178,-0.34 0.169,-0.304 0.169,-0.263C0.169,-0.222 0.178,-0.187 0.195,-0.156C0.212,-0.125 0.235,-0.1 0.265,-0.084C0.294,-0.067 0.328,-0.058 0.365,-0.058Z" style="fill-rule:nonzero;"/>
    </g>
    <g transform="matrix(12,0,0,12,266.819,152.106)">
        <rect x="0.099" y="-0.742" width="0.071" height="0.742" style="fill-rule:nonzero;"/>
    </g>
    <g transform="matrix(12,0,0,12,270.047,152.106)">
        <path d="M0.322,0.005C0.267,0.005 0.219,-0.007 0.178,-0.03C0.137,-0.053 0.104,-0.084 0.081,-0.125C0.058,-0.165 0.046,-0.211 0.046,-0.263C0.046,-0.315 0.057,-0.361 0.08,-0.401C0.102,-0.441 0.133,-0.472 0.172,-0.496C0.211,-0.519 0.254,-0.53 0.303,-0.53C0.352,-0.53 0.396,-0.519 0.435,-0.497C0.473,-0.474 0.503,-0.443 0.525,-0.403C0.547,-0.362 0.558,-0.316 0.558,-0.263L0.557,-0.241L0.1,-0.241L0.1,-0.294L0.519,-0.294L0.491,-0.273C0.491,-0.311 0.483,-0.345 0.467,-0.375C0.45,-0.404 0.428,-0.427 0.4,-0.444C0.372,-0.461 0.34,-0.469 0.303,-0.469C0.267,-0.469 0.235,-0.461 0.206,-0.444C0.177,-0.427 0.155,-0.404 0.139,-0.374C0.123,-0.344 0.115,-0.31 0.115,-0.271L0.115,-0.26C0.115,-0.22 0.124,-0.185 0.142,-0.155C0.159,-0.124 0.184,-0.1 0.216,-0.084C0.247,-0.067 0.283,-0.058 0.324,-0.058C0.356,-0.058 0.386,-0.064 0.414,-0.075C0.441,-0.086 0.465,-0.104 0.485,-0.127L0.525,-0.081C0.502,-0.053 0.472,-0.032 0.438,-0.017C0.403,-0.002 0.364,0.005 0.322,0.005Z" style="fill-rule:nonzero;"/>
    </g>
    <g transform="matrix(12,0,0,12,280.439,152.106)">
        <path d="M0.174,-0L0.174,-0.67L0.206,-0.636L0.009,-0.636L0.009,-0.7L0.246,-0.7L0.246,-0L0.174,-0Z" style="fill-rule:nonzero;"/>
    </g>
    <g transform="matrix(12,0,0,12,453.869,114.588)">
        <path d="M0.25,-0L0.25,-0.636L0.004,-0.636L0.004,-0.7L0.57,-0.7L0.57,-0.636L0.324,-0.636L0.324,-0L0.25,-0Z" style="fill-rule:nonzero;"/>
    </g>
    <g transform="matrix(12,0,0,12,460.409,114.588)">
        <path d="M0.428,-0L0.428,-0.116L0.425,-0.135L0.425,-0.329C0.425,-0.374 0.413,-0.408 0.388,-0.432C0.363,-0.456 0.325,-0.468 0.276,-0.468C0.242,-0.468 0.21,-0.462 0.179,-0.451C0.148,-0.44 0.122,-0.425 0.101,-0.406L0.069,-0.459C0.096,-0.482 0.128,-0.499 0.165,-0.512C0.202,-0.524 0.242,-0.53 0.283,-0.53C0.351,-0.53 0.404,-0.513 0.441,-0.48C0.478,-0.446 0.496,-0.395 0.496,-0.326L0.496,-0L0.428,-0ZM0.247,0.005C0.208,0.005 0.173,-0.002 0.145,-0.015C0.116,-0.028 0.093,-0.046 0.078,-0.069C0.063,-0.092 0.055,-0.118 0.055,-0.148C0.055,-0.175 0.062,-0.2 0.075,-0.223C0.088,-0.245 0.109,-0.263 0.139,-0.277C0.168,-0.29 0.208,-0.297 0.258,-0.297L0.439,-0.297L0.439,-0.244L0.26,-0.244C0.209,-0.244 0.174,-0.235 0.155,-0.217C0.135,-0.199 0.125,-0.177 0.125,-0.15C0.125,-0.12 0.137,-0.096 0.16,-0.078C0.183,-0.06 0.216,-0.051 0.258,-0.051C0.298,-0.051 0.333,-0.06 0.362,-0.079C0.391,-0.097 0.412,-0.123 0.425,-0.158L0.441,-0.109C0.428,-0.074 0.405,-0.047 0.372,-0.026C0.339,-0.005 0.297,0.005 0.247,0.005Z" style="fill-rule:nonzero;"/>
    </g>
    <g transform="matrix(12,0,0,12,467.489,114.588)">
        <path d="M0.37,0.005C0.324,0.005 0.283,-0.006 0.246,-0.027C0.209,-0.048 0.18,-0.078 0.159,-0.118C0.138,-0.158 0.127,-0.206 0.127,-0.263C0.127,-0.32 0.138,-0.369 0.16,-0.409C0.181,-0.448 0.21,-0.478 0.247,-0.499C0.284,-0.52 0.325,-0.53 0.37,-0.53C0.42,-0.53 0.465,-0.519 0.505,-0.497C0.544,-0.474 0.575,-0.443 0.598,-0.403C0.621,-0.363 0.632,-0.316 0.632,-0.263C0.632,-0.21 0.621,-0.164 0.598,-0.124C0.575,-0.083 0.544,-0.052 0.505,-0.029C0.465,-0.006 0.42,0.005 0.37,0.005ZM0.099,-0L0.099,-0.742L0.17,-0.742L0.17,-0.37L0.16,-0.264L0.167,-0.158L0.167,-0L0.099,-0ZM0.365,-0.058C0.402,-0.058 0.436,-0.067 0.465,-0.084C0.494,-0.1 0.518,-0.125 0.535,-0.156C0.552,-0.187 0.561,-0.222 0.561,-0.263C0.561,-0.304 0.552,-0.34 0.535,-0.371C0.518,-0.402 0.494,-0.426 0.465,-0.443C0.436,-0.46 0.402,-0.468 0.365,-0.468C0.328,-0.468 0.294,-0.46 0.265,-0.443C0.235,-0.426 0.212,-0.402 0.195,-0.371C0.178,-0.34 0.169,-0.304 0.169,-0.263C0.169,-0.222 0.178,-0.187 0.195,-0.156C0.212,-0.125 0.235,-0.1 0.265,-0.084C0.294,-0.067 0.328,-0.058 0.365,-0.058Z" style="fill-rule:nonzero;"/>
    </g>
    <g transform="matrix(12,0,0,12,475.625,114.588)">
        <rect x="0.099" y="-0.742" width="0.071" height="0.742" style="fill-rule:nonzero;"/>
    </g>
    <g transform="matrix(12,0,0,12,478.853,114.588)">
        <path d="M0.322,0.005C0.267,0.005 0.219,-0.007 0.178,-0.03C0.137,-0.053 0.104,-0.084 0.081,-0.125C0.058,-0.165 0.046,-0.211 0.046,-0.263C0.046,-0.315 0.057,-0.361 0.08,-0.401C0.102,-0.441 0.133,-0.472 0.172,-0.496C0.211,-0.519 0.254,-0.53 0.303,-0.53C0.352,-0.53 0.396,-0.519 0.435,-0.497C0.473,-0.474 0.503,-0.443 0.525,-0.403C0.547,-0.362 0.558,-0.316 0.558,-0.263L0.557,-0.241L0.1,-0.241L0.1,-0.294L0.519,-0.294L0.491,-0.273C0.491,-0.311 0.483,-0.345 0.467,-0.375C0.45,-0.404 0.428,-0.427 0.4,-0.444C0.372,-0.461 0.34,-0.469 0.303,-0.469C0.267,-0.469 0.235,-0.461 0.206,-0.444C0.177,-0.427 0.155,-0.404 0.139,-0.374C0.123,-0.344 0.115,-0.31 0.115,-0.271L0.115,-0.26C0.115,-0.22 0.124,-0.185 0.142,-0.155C0.159,-0.124 0.184,-0.1 0.216,-0.084C0.247,-0.067 0.283,-0.058 0.324,-0.058C0.356,-0.058 0.386,-0.064 0.414,-0.075C0.441,-0.086 0.465,-0.104 0.485,-0.127L0.525,-0.081C0.502,-0.053 0.472,-0.032 0.438,-0.017C0.403,-0.002 0.364,0.005 0.322,0.005Z" style="fill-rule:nonzero;"/>
    </g>
    <g transform="matrix(12,0,0,12,489.245,114.588)">
        <path d="M0.039,-0L0.039,-0.051L0.33,-0.336C0.357,-0.362 0.377,-0.385 0.39,-0.405C0.403,-0.424 0.412,-0.443 0.417,-0.46C0.422,-0.477 0.424,-0.494 0.424,-0.509C0.424,-0.55 0.41,-0.582 0.383,-0.605C0.355,-0.628 0.314,-0.64 0.26,-0.64C0.219,-0.64 0.182,-0.634 0.151,-0.621C0.119,-0.608 0.092,-0.589 0.069,-0.562L0.018,-0.606C0.045,-0.638 0.08,-0.663 0.123,-0.68C0.166,-0.697 0.213,-0.706 0.266,-0.706C0.313,-0.706 0.354,-0.699 0.389,-0.684C0.424,-0.669 0.451,-0.647 0.47,-0.618C0.489,-0.589 0.498,-0.556 0.498,-0.517C0.498,-0.494 0.495,-0.472 0.489,-0.45C0.482,-0.428 0.471,-0.405 0.455,-0.381C0.438,-0.356 0.414,-0.329 0.383,-0.298L0.116,-0.036L0.096,-0.064L0.53,-0.064L0.53,-0L0.039,-0Z" style="fill-rule:nonzero;"/>
    </g>
    <g transform="matrix(12,0,0,12,653.266,263.237)">
        <path d="M0.281,-0L0.281,-0.26L0.298,-0.214L0.001,-0.7L0.08,-0.7L0.341,-0.273L0.299,-0.273L0.56,-0.7L0.634,-0.7L0.337,-0.214L0.354,-0.26L0.354,-0L0.281,-0Z" style="fill-rule:nonzero;"/>
    </g>
    <g transform="matrix(12,0,0,12,660.166,263.237)">
        <path d="M0.322,0.005C0.267,0.005 0.219,-0.007 0.178,-0.03C0.137,-0.053 0.104,-0.084 0.081,-0.125C0.058,-0.165 0.046,-0.211 0.046,-0.263C0.046,-0.315 0.057,-0.361 0.08,-0.401C0.102,-0.441 0.133,-0.472 0.172,-0.496C0.211,-0.519 0.254,-0.53 0.303,-0.53C0.352,-0.53 0.396,-0.519 0.435,-0.497C0.473,-0.474 0.503,-0.443 0.525,-0.403C0.547,-0.362 0.558,-0.316 0.558,-0.263L0.557,-0.241L0.1,-0.241L0.1,-0.294L0.519,-0.294L0.491,-0.273C0.491,-0.311 0.483,-0.345 0.467,-0.375C0.45,-0.404 0.428,-0.427 0.4,-0.444C0.372,-0.461 0.34,-0.469 0.303,-0.469C0.267,-0.469 0.235,-0.461 0.206,-0.444C0.177,-0.427 0.155,-0.404 0.139,-0.374C0.123,-0.344 0.115,-0.31 0.115,-0.271L0.115,-0.26C0.115,-0.22 0.124,-0.185 0.142,-0.155C0.159,-0.124 0.184,-0.1 0.216,-0.084C0.247,-0.067 0.283,-0.058 0.324,-0.058C0.356,-0.058 0.386,-0.064 0.414,-0.075C0.441,-0.086 0.465,-0.104 0.485,-0.127L0.525,-0.081C0.502,-0.053 0.472,-0.032 0.438,-0.017C0.403,-0.002 0.364,0.005 0.322,0.005Z" style="fill-rule:nonzero;"/>
    </g>
    <g transform="matrix(12,0,0,12,667.414,263.237)">
        <rect x="0.099" y="-0.742" width="0.071" height="0.742" style="fill-rule:nonzero;"/>
    </g>
    <g transform="matrix(12,0,0,12,670.642,263.237)">
        <rect x="0.099" y="-0.742" width="0.071" height="0.742" style="fill-rule:nonzero;"/>
    </g>
    <g transform="matrix(12,0,0,12,673.87,263.237)">
        <path d="M0.313,0.005C0.262,0.005 0.217,-0.007 0.177,-0.03C0.136,-0.053 0.104,-0.084 0.081,-0.125C0.058,-0.165 0.046,-0.211 0.046,-0.263C0.046,-0.316 0.058,-0.362 0.081,-0.402C0.104,-0.442 0.136,-0.473 0.176,-0.496C0.216,-0.519 0.262,-0.53 0.313,-0.53C0.365,-0.53 0.411,-0.519 0.452,-0.496C0.492,-0.473 0.524,-0.442 0.547,-0.402C0.57,-0.362 0.581,-0.316 0.581,-0.263C0.581,-0.211 0.57,-0.165 0.547,-0.125C0.524,-0.084 0.492,-0.053 0.451,-0.03C0.41,-0.007 0.364,0.005 0.313,0.005ZM0.313,-0.058C0.351,-0.058 0.385,-0.067 0.414,-0.084C0.443,-0.1 0.466,-0.125 0.484,-0.156C0.501,-0.187 0.509,-0.222 0.509,-0.263C0.509,-0.304 0.501,-0.34 0.484,-0.371C0.466,-0.402 0.443,-0.426 0.414,-0.443C0.385,-0.46 0.351,-0.468 0.314,-0.468C0.277,-0.468 0.243,-0.46 0.214,-0.443C0.185,-0.426 0.161,-0.402 0.144,-0.371C0.127,-0.34 0.118,-0.304 0.118,-0.263C0.118,-0.222 0.127,-0.187 0.144,-0.156C0.161,-0.125 0.185,-0.1 0.214,-0.084C0.243,-0.067 0.276,-0.058 0.313,-0.058Z" style="fill-rule:nonzero;"/>
    </g>
    <g transform="matrix(12,0,0,12,681.214,263.237)">
        <path d="M0.206,-0L0.008,-0.525L0.076,-0.525L0.256,-0.038L0.225,-0.038L0.41,-0.525L0.471,-0.525L0.654,-0.038L0.623,-0.038L0.806,-0.525L0.871,-0.525L0.672,-0L0.605,-0L0.429,-0.458L0.45,-0.458L0.273,-0L0.206,-0Z" style="fill-rule:nonzero;"/>
    </g>
    <g transform="matrix(12,0,0,12,694.906,263.237)">
        <path d="M0.25,-0L0.25,-0.636L0.004,-0.636L0.004,-0.7L0.57,-0.7L0.57,-0.636L0.324,-0.636L0.324,-0L0.25,-0Z" style="fill-rule:nonzero;"/>
    </g>
    <g transform="matrix(12,0,0,12,701.446,263.237)">
        <path d="M0.428,-0L0.428,-0.116L0.425,-0.135L0.425,-0.329C0.425,-0.374 0.413,-0.408 0.388,-0.432C0.363,-0.456 0.325,-0.468 0.276,-0.468C0.242,-0.468 0.21,-0.462 0.179,-0.451C0.148,-0.44 0.122,-0.425 0.101,-0.406L0.069,-0.459C0.096,-0.482 0.128,-0.499 0.165,-0.512C0.202,-0.524 0.242,-0.53 0.283,-0.53C0.351,-0.53 0.404,-0.513 0.441,-0.48C0.478,-0.446 0.496,-0.395 0.496,-0.326L0.496,-0L0.428,-0ZM0.247,0.005C0.208,0.005 0.173,-0.002 0.145,-0.015C0.116,-0.028 0.093,-0.046 0.078,-0.069C0.063,-0.092 0.055,-0.118 0.055,-0.148C0.055,-0.175 0.062,-0.2 0.075,-0.223C0.088,-0.245 0.109,-0.263 0.139,-0.277C0.168,-0.29 0.208,-0.297 0.258,-0.297L0.439,-0.297L0.439,-0.244L0.26,-0.244C0.209,-0.244 0.174,-0.235 0.155,-0.217C0.135,-0.199 0.125,-0.177 0.125,-0.15C0.125,-0.12 0.137,-0.096 0.16,-0.078C0.183,-0.06 0.216,-0.051 0.258,-0.051C0.298,-0.051 0.333,-0.06 0.362,-0.079C0.391,-0.097 0.412,-0.123 0.425,-0.158L0.441,-0.109C0.428,-0.074 0.405,-0.047 0.372,-0.026C0.339,-0.005 0.297,0.005 0.247,0.005Z" style="fill-rule:nonzero;"/>
    </g>
    <g transform="matrix(12,0,0,12,708.526,263.237)">
        <path d="M0.37,0.005C0.324,0.005 0.283,-0.006 0.246,-0.027C0.209,-0.048 0.18,-0.078 0.159,-0.118C0.138,-0.158 0.127,-0.206 0.127,-0.263C0.127,-0.32 0.138,-0.369 0.16,-0.409C0.181,-0.448 0.21,-0.478 0.247,-0.499C0.284,-0.52 0.325,-0.53 0.37,-0.53C0.42,-0.53 0.465,-0.519 0.505,-0.497C0.544,-0.474 0.575,-0.443 0.598,-0.403C0.621,-0.363 0.632,-0.316 0.632,-0.263C0.632,-0.21 0.621,-0.164 0.598,-0.124C0.575,-0.083 0.544,-0.052 0.505,-0.029C0.465,-0.006 0.42,0.005 0.37,0.005ZM0.099,-0L0.099,-0.742L0.17,-0.742L0.17,-0.37L0.16,-0.264L0.167,-0.158L0.167,-0L0.099,-0ZM0.365,-0.058C0.402,-0.058 0.436,-0.067 0.465,-0.084C0.494,-0.1 0.518,-0.125 0.535,-0.156C0.552,-0.187 0.561,-0.222 0.561,-0.263C0.561,-0.304 0.552,-0.34 0.535,-0.371C0.518,-0.402 0.494,-0.426 0.465,-0.443C0.436,-0.46 0.402,-0.468 0.365,-0.468C0.328,-0.468 0.294,-0.46 0.265,-0.443C0.235,-0.426 0.212,-0.402 0.195,-0.371C0.178,-0.34 0.169,-0.304 0.169,-0.263C0.169,-0.222 0.178,-0.187 0.195,-0.156C0.212,-0.125 0.235,-0.1 0.265,-0.084C0.294,-0.067 0.328,-0.058 0.365,-0.058Z" style="fill-rule:nonzero;"/>
    </g>
    <g transform="matrix(12,0,0,12,716.662,263.237)">
        <rect x="0.099" y="-0.742" width="0.071" height="0.742" style="fill-rule:nonzero;"/>
    </g>
    <g transform="matrix(12,0,0,12,719.89,263.237)">
        <path d="M0.322,0.005C0.267,0.005 0.219,-0.007 0.178,-0.03C0.137,-0.053 0.104,-0.084 0.081,-0.125C0.058,-0.165 0.046,-0.211 0.046,-0.263C0.046,-0.315 0.057,-0.361 0.08,-0.401C0.102,-0.441 0.133,-0.472 0.172,-0.496C0.211,-0.519 0.254,-0.53 0.303,-0.53C0.352,-0.53 0.396,-0.519 0.435,-0.497C0.473,-0.474 0.503,-0.443 0.525,-0.403C0.547,-0.362 0.558,-0.316 0.558,-0.263L0.557,-0.241L0.1,-0.241L0.1,-0.294L0.519,-0.294L0.491,-0.273C0.491,-0.311 0.483,-0.345 0.467,-0.375C0.45,-0.404 0.428,-0.427 0.4,-0.444C0.372,-0.461 0.34,-0.469 0.303,-0.469C0.267,-0.469 0.235,-0.461 0.206,-0.444C0.177,-0.427 0.155,-0.404 0.139,-0.374C0.123,-0.344 0.115,-0.31 0.115,-0.271L0.115,-0.26C0.115,-0.22 0.124,-0.185 0.142,-0.155C0.159,-0.124 0.184,-0.1 0.216,-0.084C0.247,-0.067 0.283,-0.058 0.324,-0.058C0.356,-0.058 0.386,-0.064 0.414,-0.075C0.441,-0.086 0.465,-0.104 0.485,-0.127L0.525,-0.081C0.502,-0.053 0.472,-0.032 0.438,-0.017C0.403,-0.002 0.364,0.005 0.322,0.005Z" style="fill-rule:nonzero;"/>
    </g>
    <g transform="matrix(12,0,0,12,673.451,369.564)">
        <path d="M0.307,0.006C0.255,0.006 0.205,-0.003 0.158,-0.02C0.11,-0.037 0.073,-0.058 0.047,-0.085L0.076,-0.142C0.101,-0.118 0.134,-0.098 0.176,-0.082C0.217,-0.065 0.261,-0.057 0.307,-0.057C0.351,-0.057 0.387,-0.063 0.415,-0.074C0.442,-0.085 0.463,-0.099 0.476,-0.118C0.489,-0.137 0.495,-0.157 0.495,-0.18C0.495,-0.207 0.487,-0.229 0.472,-0.246C0.456,-0.263 0.435,-0.276 0.41,-0.286C0.385,-0.295 0.357,-0.304 0.326,-0.311C0.295,-0.318 0.265,-0.326 0.234,-0.335C0.203,-0.343 0.175,-0.354 0.15,-0.368C0.124,-0.382 0.103,-0.401 0.088,-0.424C0.072,-0.447 0.064,-0.477 0.064,-0.514C0.064,-0.549 0.073,-0.581 0.092,-0.61C0.11,-0.639 0.138,-0.662 0.176,-0.68C0.214,-0.697 0.263,-0.706 0.322,-0.706C0.361,-0.706 0.4,-0.7 0.439,-0.69C0.478,-0.679 0.511,-0.663 0.539,-0.644L0.514,-0.585C0.484,-0.605 0.452,-0.62 0.419,-0.629C0.385,-0.638 0.352,-0.643 0.321,-0.643C0.279,-0.643 0.244,-0.637 0.217,-0.626C0.19,-0.615 0.169,-0.6 0.157,-0.581C0.143,-0.562 0.137,-0.54 0.137,-0.516C0.137,-0.489 0.145,-0.467 0.161,-0.45C0.176,-0.433 0.197,-0.42 0.223,-0.411C0.248,-0.402 0.276,-0.393 0.307,-0.386C0.338,-0.379 0.368,-0.371 0.399,-0.362C0.429,-0.353 0.457,-0.342 0.483,-0.329C0.508,-0.315 0.529,-0.297 0.545,-0.274C0.56,-0.251 0.568,-0.222 0.568,-0.185C0.568,-0.151 0.559,-0.12 0.54,-0.091C0.521,-0.062 0.493,-0.038 0.455,-0.021C0.416,-0.003 0.367,0.006 0.307,0.006Z" style="fill-rule:nonzero;"/>
    </g>
    <g transform="matrix(12,0,0,12,680.831,369.564)">
        <path d="M0.367,-0.53C0.41,-0.53 0.447,-0.522 0.48,-0.506C0.512,-0.489 0.537,-0.464 0.556,-0.431C0.574,-0.398 0.583,-0.356 0.583,-0.305L0.583,-0L0.512,-0L0.512,-0.298C0.512,-0.353 0.498,-0.395 0.471,-0.424C0.443,-0.452 0.404,-0.466 0.354,-0.466C0.317,-0.466 0.284,-0.459 0.257,-0.444C0.229,-0.428 0.208,-0.407 0.193,-0.379C0.178,-0.35 0.17,-0.316 0.17,-0.276L0.17,-0L0.099,-0L0.099,-0.742L0.17,-0.742L0.17,-0.381L0.156,-0.408C0.173,-0.446 0.199,-0.476 0.236,-0.498C0.273,-0.519 0.316,-0.53 0.367,-0.53Z" style="fill-rule:nonzero;"/>
    </g>
    <g transform="matrix(12,0,0,12,688.943,369.564)">
        <path d="M0.322,0.005C0.267,0.005 0.219,-0.007 0.178,-0.03C0.137,-0.053 0.104,-0.084 0.081,-0.125C0.058,-0.165 0.046,-0.211 0.046,-0.263C0.046,-0.315 0.057,-0.361 0.08,-0.401C0.102,-0.441 0.133,-0.472 0.172,-0.496C0.211,-0.519 0.254,-0.53 0.303,-0.53C0.352,-0.53 0.396,-0.519 0.435,-0.497C0.473,-0.474 0.503,-0.443 0.525,-0.403C0.547,-0.362 0.558,-0.316 0.558,-0.263L0.557,-0.241L0.1,-0.241L0.1,-0.294L0.519,-0.294L0.491,-0.273C0.491,-0.311 0.483,-0.345 0.467,-0.375C0.45,-0.404 0.428,-0.427 0.4,-0.444C0.372,-0.461 0.34,-0.469 0.303,-0.469C0.267,-0.469 0.235,-0.461 0.206,-0.444C0.177,-0.427 0.155,-0.404 0.139,-0.374C0.123,-0.344 0.115,-0.31 0.115,-0.271L0.115,-0.26C0.115,-0.22 0.124,-0.185 0.142,-0.155C0.159,-0.124 0.184,-0.1 0.216,-0.084C0.247,-0.067 0.283,-0.058 0.324,-0.058C0.356,-0.058 0.386,-0.064 0.414,-0.075C0.441,-0.086 0.465,-0.104 0.485,-0.127L0.525,-0.081C0.502,-0.053 0.472,-0.032 0.438,-0.017C0.403,-0.002 0.364,0.005 0.322,0.005Z" style="fill-rule:nonzero;"/>
    </g>
    <g transform="matrix(12,0,0,12,696.191,369.564)">
        <rect x="0.099" y="-0.742" width="0.071" height="0.742" style="fill-rule:nonzero;"/>
    </g>
    <g transform="matrix(12,0,0,12,699.419,369.564)">
        <path d="M0.111,-0L0.111,-0.591C0.111,-0.638 0.125,-0.675 0.152,-0.704C0.179,-0.733 0.219,-0.747 0.27,-0.747C0.29,-0.747 0.309,-0.744 0.328,-0.739C0.347,-0.734 0.362,-0.725 0.375,-0.714L0.351,-0.661C0.341,-0.67 0.329,-0.676 0.316,-0.681C0.303,-0.685 0.288,-0.687 0.273,-0.687C0.243,-0.687 0.22,-0.679 0.204,-0.662C0.188,-0.645 0.18,-0.621 0.18,-0.588L0.18,-0.508L0.182,-0.475L0.182,-0L0.111,-0ZM0.017,-0.466L0.017,-0.525L0.342,-0.525L0.342,-0.466L0.017,-0.466Z" style="fill-rule:nonzero;"/>
    </g>
    <g transform="matrix(12,0,0,12,204.738,415.146)">
        <path d="M0.281,-0L0.281,-0.26L0.298,-0.214L0.001,-0.7L0.08,-0.7L0.341,-0.273L0.299,-0.273L0.56,-0.7L0.634,-0.7L0.337,-0.214L0.354,-0.26L0.354,-0L0.281,-0Z" style="fill-rule:nonzero;"/>
    </g>
    <g transform="matrix(12,0,0,12,211.638,415.146)">
        <path d="M0.322,0.005C0.267,0.005 0.219,-0.007 0.178,-0.03C0.137,-0.053 0.104,-0.084 0.081,-0.125C0.058,-0.165 0.046,-0.211 0.046,-0.263C0.046,-0.315 0.057,-0.361 0.08,-0.401C0.102,-0.441 0.133,-0.472 0.172,-0.496C0.211,-0.519 0.254,-0.53 0.303,-0.53C0.352,-0.53 0.396,-0.519 0.435,-0.497C0.473,-0.474 0.503,-0.443 0.525,-0.403C0.547,-0.362 0.558,-0.316 0.558,-0.263L0.557,-0.241L0.1,-0.241L0.1,-0.294L0.519,-0.294L0.491,-0.273C0.491,-0.311 0.483,-0.345 0.467,-0.375C0.45,-0.404 0.428,-0.427 0.4,-0.444C0.372,-0.461 0.34,-0.469 0.303,-0.469C0.267,-0.469 0.235,-0.461 0.206,-0.444C0.177,-0.427 0.155,-0.404 0.139,-0.374C0.123,-0.344 0.115,-0.31 0.115,-0.271L0.115,-0.26C0.115,-0.22 0.124,-0.185 0.142,-0.155C0.159,-0.124 0.184,-0.1 0.216,-0.084C0.247,-0.067 0.283,-0.058 0.324,-0.058C0.356,-0.058 0.386,-0.064 0.414,-0.075C0.441,-0.086 0.465,-0.104 0.485,-0.127L0.525,-0.081C0.502,-0.053 0.472,-0.032 0.438,-0.017C0.403,-0.002 0.364,0.005 0.322,0.005Z" style="fill-rule:nonzero;"/>
    </g>
    <g transform="matrix(12,0,0,12,218.886,415.146)">
        <rect x="0.099" y="-0.742" width="0.071" height="0.742" style="fill-rule:nonzero;"/>
    </g>
    <g transform="matrix(12,0,0,12,222.114,415.146)">
        <rect x="0.099" y="-0.742" width="0.071" height="0.742" style="fill-rule:nonzero;"/>
    </g>
    <g transform="matrix(12,0,0,12,225.342,415.146)">
        <path d="M0.313,0.005C0.262,0.005 0.217,-0.007 0.177,-0.03C0.136,-0.053 0.104,-0.084 0.081,-0.125C0.058,-0.165 0.046,-0.211 0.046,-0.263C0.046,-0.316 0.058,-0.362 0.081,-0.402C0.104,-0.442 0.136,-0.473 0.176,-0.496C0.216,-0.519 0.262,-0.53 0.313,-0.53C0.365,-0.53 0.411,-0.519 0.452,-0.496C0.492,-0.473 0.524,-0.442 0.547,-0.402C0.57,-0.362 0.581,-0.316 0.581,-0.263C0.581,-0.211 0.57,-0.165 0.547,-0.125C0.524,-0.084 0.492,-0.053 0.451,-0.03C0.41,-0.007 0.364,0.005 0.313,0.005ZM0.313,-0.058C0.351,-0.058 0.385,-0.067 0.414,-0.084C0.443,-0.1 0.466,-0.125 0.484,-0.156C0.501,-0.187 0.509,-0.222 0.509,-0.263C0.509,-0.304 0.501,-0.34 0.484,-0.371C0.466,-0.402 0.443,-0.426 0.414,-0.443C0.385,-0.46 0.351,-0.468 0.314,-0.468C0.277,-0.468 0.243,-0.46 0.214,-0.443C0.185,-0.426 0.161,-0.402 0.144,-0.371C0.127,-0.34 0.118,-0.304 0.118,-0.263C0.118,-0.222 0.127,-0.187 0.144,-0.156C0.161,-0.125 0.185,-0.1 0.214,-0.084C0.243,-0.067 0.276,-0.058 0.313,-0.058Z" style="fill-rule:nonzero;"/>
    </g>
    <g transform="matrix(12,0,0,12,232.686,415.146)">
        <path d="M0.206,-0L0.008,-0.525L0.076,-0.525L0.256,-0.038L0.225,-0.038L0.41,-0.525L0.471,-0.525L0.654,-0.038L0.623,-0.038L0.806,-0.525L0.871,-0.525L0.672,-0L0.605,-0L0.429,-0.458L0.45,-0.458L0.273,-0L0.206,-0Z" style="fill-rule:nonzero;"/>
    </g>
    <g transform="matrix(12,0,0,12,246.378,415.146)">
        <path d="M0.418,0.006C0.365,0.006 0.317,-0.003 0.272,-0.021C0.227,-0.038 0.189,-0.063 0.156,-0.095C0.123,-0.127 0.098,-0.165 0.08,-0.208C0.061,-0.251 0.052,-0.299 0.052,-0.35C0.052,-0.401 0.061,-0.449 0.08,-0.492C0.098,-0.535 0.124,-0.573 0.157,-0.605C0.19,-0.637 0.228,-0.662 0.273,-0.68C0.318,-0.697 0.366,-0.706 0.419,-0.706C0.47,-0.706 0.517,-0.697 0.562,-0.681C0.607,-0.664 0.644,-0.638 0.675,-0.604L0.628,-0.557C0.599,-0.586 0.568,-0.608 0.533,-0.621C0.498,-0.634 0.461,-0.64 0.421,-0.64C0.379,-0.64 0.34,-0.633 0.304,-0.619C0.268,-0.604 0.237,-0.584 0.21,-0.558C0.183,-0.531 0.163,-0.501 0.148,-0.466C0.132,-0.431 0.125,-0.392 0.125,-0.35C0.125,-0.308 0.132,-0.27 0.148,-0.235C0.163,-0.2 0.183,-0.169 0.21,-0.143C0.237,-0.116 0.268,-0.096 0.304,-0.082C0.34,-0.067 0.379,-0.06 0.421,-0.06C0.461,-0.06 0.498,-0.067 0.533,-0.08C0.568,-0.093 0.599,-0.115 0.628,-0.144L0.675,-0.097C0.644,-0.063 0.607,-0.037 0.562,-0.02C0.517,-0.003 0.469,0.006 0.418,0.006Z" style="fill-rule:nonzero;"/>
    </g>
    <g transform="matrix(12,0,0,12,254.91,415.146)">
        <path d="M0.428,-0L0.428,-0.116L0.425,-0.135L0.425,-0.329C0.425,-0.374 0.413,-0.408 0.388,-0.432C0.363,-0.456 0.325,-0.468 0.276,-0.468C0.242,-0.468 0.21,-0.462 0.179,-0.451C0.148,-0.44 0.122,-0.425 0.101,-0.406L0.069,-0.459C0.096,-0.482 0.128,-0.499 0.165,-0.512C0.202,-0.524 0.242,-0.53 0.283,-0.53C0.351,-0.53 0.404,-0.513 0.441,-0.48C0.478,-0.446 0.496,-0.395 0.496,-0.326L0.496,-0L0.428,-0ZM0.247,0.005C0.208,0.005 0.173,-0.002 0.145,-0.015C0.116,-0.028 0.093,-0.046 0.078,-0.069C0.063,-0.092 0.055,-0.118 0.055,-0.148C0.055,-0.175 0.062,-0.2 0.075,-0.223C0.088,-0.245 0.109,-0.263 0.139,-0.277C0.168,-0.29 0.208,-0.297 0.258,-0.297L0.439,-0.297L0.439,-0.244L0.26,-0.244C0.209,-0.244 0.174,-0.235 0.155,-0.217C0.135,-0.199 0.125,-0.177 0.125,-0.15C0.125,-0.12 0.137,-0.096 0.16,-0.078C0.183,-0.06 0.216,-0.051 0.258,-0.051C0.298,-0.051 0.333,-0.06 0.362,-0.079C0.391,-0.097 0.412,-0.123 0.425,-0.158L0.441,-0.109C0.428,-0.074 0.405,-0.047 0.372,-0.026C0.339,-0.005 0.297,0.005 0.247,0.005Z" style="fill-rule:nonzero;"/>
    </g>
    <g transform="matrix(12,0,0,12,261.99,415.146)">
        <path d="M0.099,-0L0.099,-0.525L0.167,-0.525L0.167,-0.382L0.16,-0.407C0.175,-0.447 0.199,-0.478 0.234,-0.499C0.269,-0.52 0.312,-0.53 0.363,-0.53L0.363,-0.461L0.347,-0.462C0.292,-0.462 0.248,-0.445 0.217,-0.412C0.186,-0.378 0.17,-0.33 0.17,-0.268L0.17,-0L0.099,-0Z" style="fill-rule:nonzero;"/>
    </g>
    <g transform="matrix(12,0,0,12,266.706,415.146)">
        <path d="M0.37,0.005C0.325,0.005 0.284,-0.006 0.247,-0.027C0.21,-0.048 0.181,-0.078 0.16,-0.118C0.138,-0.157 0.127,-0.206 0.127,-0.263C0.127,-0.32 0.138,-0.369 0.159,-0.409C0.18,-0.448 0.209,-0.478 0.246,-0.499C0.283,-0.52 0.324,-0.53 0.37,-0.53C0.42,-0.53 0.465,-0.519 0.505,-0.497C0.544,-0.474 0.575,-0.443 0.598,-0.403C0.621,-0.362 0.632,-0.316 0.632,-0.263C0.632,-0.21 0.621,-0.163 0.598,-0.123C0.575,-0.083 0.544,-0.052 0.505,-0.029C0.465,-0.006 0.42,0.005 0.37,0.005ZM0.099,0.194L0.099,-0.525L0.167,-0.525L0.167,-0.367L0.16,-0.262L0.17,-0.156L0.17,0.194L0.099,0.194ZM0.365,-0.058C0.402,-0.058 0.436,-0.067 0.465,-0.084C0.494,-0.1 0.518,-0.125 0.535,-0.156C0.552,-0.187 0.561,-0.222 0.561,-0.263C0.561,-0.304 0.552,-0.339 0.535,-0.37C0.518,-0.401 0.494,-0.425 0.465,-0.442C0.436,-0.459 0.402,-0.468 0.365,-0.468C0.328,-0.468 0.294,-0.459 0.265,-0.442C0.235,-0.425 0.212,-0.401 0.195,-0.37C0.178,-0.339 0.169,-0.304 0.169,-0.263C0.169,-0.222 0.178,-0.187 0.195,-0.156C0.212,-0.125 0.235,-0.1 0.265,-0.084C0.294,-0.067 0.328,-0.058 0.365,-0.058Z" style="fill-rule:nonzero;"/>
    </g>
    <g transform="matrix(12,0,0,12,274.842,415.146)">
        <path d="M0.322,0.005C0.267,0.005 0.219,-0.007 0.178,-0.03C0.137,-0.053 0.104,-0.084 0.081,-0.125C0.058,-0.165 0.046,-0.211 0.046,-0.263C0.046,-0.315 0.057,-0.361 0.08,-0.401C0.102,-0.441 0.133,-0.472 0.172,-0.496C0.211,-0.519 0.254,-0.53 0.303,-0.53C0.352,-0.53 0.396,-0.519 0.435,-0.497C0.473,-0.474 0.503,-0.443 0.525,-0.403C0.547,-0.362 0.558,-0.316 0.558,-0.263L0.557,-0.241L0.1,-0.241L0.1,-0.294L0.519,-0.294L0.491,-0.273C0.491,-0.311 0.483,-0.345 0.467,-0.375C0.45,-0.404 0.428,-0.427 0.4,-0.444C0.372,-0.461 0.34,-0.469 0.303,-0.469C0.267,-0.469 0.235,-0.461 0.206,-0.444C0.177,-0.427 0.155,-0.404 0.139,-0.374C0.123,-0.344 0.115,-0.31 0.115,-0.271L0.115,-0.26C0.115,-0.22 0.124,-0.185 0.142,-0.155C0.159,-0.124 0.184,-0.1 0.216,-0.084C0.247,-0.067 0.283,-0.058 0.324,-0.058C0.356,-0.058 0.386,-0.064 0.414,-0.075C0.441,-0.086 0.465,-0.104 0.485,-0.127L0.525,-0.081C0.502,-0.053 0.472,-0.032 0.438,-0.017C0.403,-0.002 0.364,0.005 0.322,0.005Z" style="fill-rule:nonzero;"/>
    </g>
    <g transform="matrix(12,0,0,12,282.09,415.146)">
        <path d="M0.265,0.005C0.216,0.005 0.178,-0.008 0.151,-0.035C0.124,-0.062 0.111,-0.099 0.111,-0.148L0.111,-0.641L0.182,-0.641L0.182,-0.152C0.182,-0.121 0.19,-0.098 0.206,-0.081C0.221,-0.064 0.244,-0.056 0.273,-0.056C0.304,-0.056 0.33,-0.065 0.351,-0.083L0.376,-0.032C0.362,-0.019 0.345,-0.01 0.326,-0.004C0.306,0.002 0.286,0.005 0.265,0.005ZM0.017,-0.466L0.017,-0.525L0.342,-0.525L0.342,-0.466L0.017,-0.466Z" style="fill-rule:nonzero;"/>
    </g>
</svg>
